<mxfile modified="2023-10-17T17:54:30.380Z" host="app.diagrams.net" agent="5.0 (Macintosh; Intel Mac OS X 10_15_7) AppleWebKit/537.36 (KHTML, like Gecko) Chrome/116.0.0.0 Safari/537.36" etag="s4yeETxxV7WWCAPKJ4et" version="21.0.4" type="github">
  <diagram id="Ht1M8jgEwFfnCIfOTk4-" name="Page-1">
    <mxGraphModel dx="876" dy="1486" grid="1" gridSize="10" guides="1" tooltips="1" connect="1" arrows="1" fold="1" page="1" pageScale="1" pageWidth="1169" pageHeight="827" math="0" shadow="0">
      <root>
        <mxCell id="0" />
        <mxCell id="1" parent="0" />
        <mxCell id="21uGkcQerDSEU2l0SpL8-11" value="" style="group" vertex="1" connectable="0" parent="1">
          <mxGeometry x="130" y="330" width="950" height="280" as="geometry" />
        </mxCell>
        <mxCell id="UEzPUAAOIrF-is8g5C7q-208" value="" style="rounded=0;whiteSpace=wrap;html=1;labelBackgroundColor=#ffffff;fillColor=#ffffff;gradientColor=none;container=1;pointerEvents=0;collapsible=0;recursiveResize=0;" parent="21uGkcQerDSEU2l0SpL8-11" vertex="1">
          <mxGeometry width="919.84126984127" height="262.5" as="geometry" />
        </mxCell>
        <mxCell id="UEzPUAAOIrF-is8g5C7q-207" value="" style="rounded=0;whiteSpace=wrap;html=1;labelBackgroundColor=#ffffff;fillColor=#ffffff;gradientColor=none;container=1;pointerEvents=0;collapsible=0;recursiveResize=0;" parent="21uGkcQerDSEU2l0SpL8-11" vertex="1">
          <mxGeometry x="15.079365079365079" y="8.75" width="919.84126984127" height="262.5" as="geometry" />
        </mxCell>
        <mxCell id="UEzPUAAOIrF-is8g5C7q-206" value="Data Account&lt;br&gt;" style="points=[[0,0],[0.25,0],[0.5,0],[0.75,0],[1,0],[1,0.25],[1,0.5],[1,0.75],[1,1],[0.75,1],[0.5,1],[0.25,1],[0,1],[0,0.75],[0,0.5],[0,0.25]];outlineConnect=0;gradientColor=none;html=1;whiteSpace=wrap;fontSize=12;fontStyle=0;shape=mxgraph.aws4.group;grIcon=mxgraph.aws4.group_aws_cloud_alt;strokeColor=#232F3E;fillColor=#ffffff;verticalAlign=top;align=left;spacingLeft=30;fontColor=#232F3E;dashed=0;labelBackgroundColor=#ffffff;container=1;pointerEvents=0;collapsible=0;recursiveResize=0;" parent="21uGkcQerDSEU2l0SpL8-11" vertex="1">
          <mxGeometry x="30.158730158730158" y="17.5" width="919.84126984127" height="262.5" as="geometry" />
        </mxCell>
        <mxCell id="21uGkcQerDSEU2l0SpL8-15" value="" style="rounded=0;whiteSpace=wrap;html=1;fillColor=none;dashed=1;" vertex="1" parent="UEzPUAAOIrF-is8g5C7q-206">
          <mxGeometry x="758.6459770114943" y="23.5" width="131.0344827586207" height="216.5" as="geometry" />
        </mxCell>
        <mxCell id="21uGkcQerDSEU2l0SpL8-14" value="Lambda" style="outlineConnect=0;dashed=0;verticalLabelPosition=bottom;verticalAlign=top;align=center;html=1;shape=mxgraph.aws3.lambda_function;fillColor=#F58534;gradientColor=none;" vertex="1" parent="UEzPUAAOIrF-is8g5C7q-206">
          <mxGeometry x="784.5309250136837" y="35.5" width="75.3448275862069" height="72" as="geometry" />
        </mxCell>
        <mxCell id="21uGkcQerDSEU2l0SpL8-5" value="AWS Glue" style="sketch=0;points=[[0,0,0],[0.25,0,0],[0.5,0,0],[0.75,0,0],[1,0,0],[0,1,0],[0.25,1,0],[0.5,1,0],[0.75,1,0],[1,1,0],[0,0.25,0],[0,0.5,0],[0,0.75,0],[1,0.25,0],[1,0.5,0],[1,0.75,0]];outlineConnect=0;fontColor=#232F3E;gradientColor=#945DF2;gradientDirection=north;fillColor=#5A30B5;strokeColor=#ffffff;dashed=0;verticalLabelPosition=bottom;verticalAlign=top;align=center;html=1;fontSize=12;fontStyle=0;aspect=fixed;shape=mxgraph.aws4.resourceIcon;resIcon=mxgraph.aws4.glue;" vertex="1" parent="21uGkcQerDSEU2l0SpL8-11">
          <mxGeometry x="88.58750000000002" y="101" width="78" height="78" as="geometry" />
        </mxCell>
        <mxCell id="21uGkcQerDSEU2l0SpL8-6" value="S3 bucket" style="sketch=0;points=[[0,0,0],[0.25,0,0],[0.5,0,0],[0.75,0,0],[1,0,0],[0,1,0],[0.25,1,0],[0.5,1,0],[0.75,1,0],[1,1,0],[0,0.25,0],[0,0.5,0],[0,0.75,0],[1,0.25,0],[1,0.5,0],[1,0.75,0]];outlineConnect=0;fontColor=#232F3E;gradientColor=#60A337;gradientDirection=north;fillColor=#277116;strokeColor=#ffffff;dashed=0;verticalLabelPosition=bottom;verticalAlign=top;align=center;html=1;fontSize=12;fontStyle=0;aspect=fixed;shape=mxgraph.aws4.resourceIcon;resIcon=mxgraph.aws4.s3;" vertex="1" parent="21uGkcQerDSEU2l0SpL8-11">
          <mxGeometry x="230.49881693986816" y="101" width="78" height="78" as="geometry" />
        </mxCell>
        <mxCell id="21uGkcQerDSEU2l0SpL8-8" value="AWS Kinesis&lt;br&gt;Delivery Stream" style="sketch=0;points=[[0,0,0],[0.25,0,0],[0.5,0,0],[0.75,0,0],[1,0,0],[0,1,0],[0.25,1,0],[0.5,1,0],[0.75,1,0],[1,1,0],[0,0.25,0],[0,0.5,0],[0,0.75,0],[1,0.25,0],[1,0.5,0],[1,0.75,0]];outlineConnect=0;fontColor=#232F3E;gradientColor=#945DF2;gradientDirection=north;fillColor=#5A30B5;strokeColor=#ffffff;dashed=0;verticalLabelPosition=bottom;verticalAlign=top;align=center;html=1;fontSize=12;fontStyle=0;aspect=fixed;shape=mxgraph.aws4.resourceIcon;resIcon=mxgraph.aws4.kinesis_data_firehose;" vertex="1" parent="21uGkcQerDSEU2l0SpL8-11">
          <mxGeometry x="422.5727941176471" y="101" width="78" height="78" as="geometry" />
        </mxCell>
        <mxCell id="21uGkcQerDSEU2l0SpL8-10" value="AWS Eventbridge" style="sketch=0;points=[[0,0,0],[0.25,0,0],[0.5,0,0],[0.75,0,0],[1,0,0],[0,1,0],[0.25,1,0],[0.5,1,0],[0.75,1,0],[1,1,0],[0,0.25,0],[0,0.5,0],[0,0.75,0],[1,0.25,0],[1,0.5,0],[1,0.75,0]];outlineConnect=0;fontColor=#232F3E;gradientColor=#FF4F8B;gradientDirection=north;fillColor=#BC1356;strokeColor=#ffffff;dashed=0;verticalLabelPosition=bottom;verticalAlign=top;align=center;html=1;fontSize=12;fontStyle=0;aspect=fixed;shape=mxgraph.aws4.resourceIcon;resIcon=mxgraph.aws4.eventbridge;" vertex="1" parent="21uGkcQerDSEU2l0SpL8-11">
          <mxGeometry x="813.866911764706" y="152" width="78" height="78" as="geometry" />
        </mxCell>
        <mxCell id="21uGkcQerDSEU2l0SpL8-18" value="" style="edgeStyle=orthogonalEdgeStyle;rounded=0;orthogonalLoop=1;jettySize=auto;html=1;" edge="1" parent="21uGkcQerDSEU2l0SpL8-11" source="21uGkcQerDSEU2l0SpL8-7" target="21uGkcQerDSEU2l0SpL8-8">
          <mxGeometry relative="1" as="geometry" />
        </mxCell>
        <mxCell id="21uGkcQerDSEU2l0SpL8-7" value="AWS Kinesis&lt;br&gt;Data Stream" style="sketch=0;points=[[0,0,0],[0.25,0,0],[0.5,0,0],[0.75,0,0],[1,0,0],[0,1,0],[0.25,1,0],[0.5,1,0],[0.75,1,0],[1,1,0],[0,0.25,0],[0,0.5,0],[0,0.75,0],[1,0.25,0],[1,0.5,0],[1,0.75,0]];outlineConnect=0;fontColor=#232F3E;gradientColor=#945DF2;gradientDirection=north;fillColor=#5A30B5;strokeColor=#ffffff;dashed=0;verticalLabelPosition=bottom;verticalAlign=top;align=center;html=1;fontSize=12;fontStyle=0;aspect=fixed;shape=mxgraph.aws4.resourceIcon;resIcon=mxgraph.aws4.kinesis_data_streams;" vertex="1" parent="21uGkcQerDSEU2l0SpL8-11">
          <mxGeometry x="583.8929428668021" y="101" width="78" height="78" as="geometry" />
        </mxCell>
        <mxCell id="UEzPUAAOIrF-is8g5C7q-226" style="edgeStyle=orthogonalEdgeStyle;rounded=0;orthogonalLoop=1;jettySize=auto;html=1;startArrow=none;startFill=0;endArrow=open;endFill=0;strokeColor=#808080;strokeWidth=2;entryX=1;entryY=0.5;entryDx=0;entryDy=0;entryPerimeter=0;exitX=0;exitY=0.5;exitDx=0;exitDy=0;exitPerimeter=0;" parent="21uGkcQerDSEU2l0SpL8-11" source="21uGkcQerDSEU2l0SpL8-8" target="21uGkcQerDSEU2l0SpL8-6" edge="1">
          <mxGeometry relative="1" as="geometry">
            <mxPoint x="611.494252873563" y="-100" as="sourcePoint" />
            <mxPoint x="818.9655172413792" y="-100" as="targetPoint" />
          </mxGeometry>
        </mxCell>
        <mxCell id="21uGkcQerDSEU2l0SpL8-16" style="edgeStyle=orthogonalEdgeStyle;rounded=0;orthogonalLoop=1;jettySize=auto;html=1;startArrow=none;startFill=0;endArrow=open;endFill=0;strokeColor=#808080;strokeWidth=2;exitX=0;exitY=0.5;exitDx=0;exitDy=0;exitPerimeter=0;entryX=1;entryY=0.5;entryDx=0;entryDy=0;entryPerimeter=0;" edge="1" parent="21uGkcQerDSEU2l0SpL8-11" source="21uGkcQerDSEU2l0SpL8-7" target="21uGkcQerDSEU2l0SpL8-8">
          <mxGeometry relative="1" as="geometry">
            <mxPoint x="487.0114942528736" y="150" as="sourcePoint" />
            <mxPoint x="567.816091954023" y="140" as="targetPoint" />
          </mxGeometry>
        </mxCell>
        <mxCell id="UEzPUAAOIrF-is8g5C7q-234" style="edgeStyle=orthogonalEdgeStyle;rounded=0;orthogonalLoop=1;jettySize=auto;html=1;startArrow=none;startFill=0;endArrow=open;endFill=0;strokeColor=#808080;strokeWidth=2;entryX=0.5;entryY=0;entryDx=0;entryDy=0;entryPerimeter=0;" parent="1" source="21uGkcQerDSEU2l0SpL8-2" target="21uGkcQerDSEU2l0SpL8-4" edge="1">
          <mxGeometry relative="1" as="geometry">
            <mxPoint x="580" y="100" as="sourcePoint" />
            <mxPoint x="399.5" y="177.5" as="targetPoint" />
          </mxGeometry>
        </mxCell>
        <mxCell id="UEzPUAAOIrF-is8g5C7q-228" value="Read metadata" style="edgeStyle=orthogonalEdgeStyle;rounded=0;orthogonalLoop=1;jettySize=auto;html=1;startArrow=none;startFill=0;endArrow=open;endFill=0;strokeColor=#808080;strokeWidth=2;exitX=0;exitY=0.5;exitDx=0;exitDy=0;exitPerimeter=0;" parent="1" source="21uGkcQerDSEU2l0SpL8-4" target="21uGkcQerDSEU2l0SpL8-5" edge="1">
          <mxGeometry relative="1" as="geometry">
            <Array as="points">
              <mxPoint x="246" y="200" />
            </Array>
            <mxPoint x="869.9994408230937" y="298.0005882352941" as="sourcePoint" />
            <mxPoint x="914.22" y="413.0594117647058" as="targetPoint" />
          </mxGeometry>
        </mxCell>
        <mxCell id="UEzPUAAOIrF-is8g5C7q-205" value="Data Consumer Account" style="points=[[0,0],[0.25,0],[0.5,0],[0.75,0],[1,0],[1,0.25],[1,0.5],[1,0.75],[1,1],[0.75,1],[0.5,1],[0.25,1],[0,1],[0,0.75],[0,0.5],[0,0.25]];outlineConnect=0;gradientColor=none;html=1;whiteSpace=wrap;fontSize=12;fontStyle=0;shape=mxgraph.aws4.group;grIcon=mxgraph.aws4.group_aws_cloud_alt;strokeColor=#232F3E;fillColor=none;verticalAlign=top;align=left;spacingLeft=30;fontColor=#232F3E;dashed=0;labelBackgroundColor=#ffffff;container=1;pointerEvents=0;collapsible=0;recursiveResize=0;" parent="1" vertex="1">
          <mxGeometry x="160" y="120" width="359.5" height="170" as="geometry" />
        </mxCell>
        <mxCell id="21uGkcQerDSEU2l0SpL8-4" value="AWS Athena" style="sketch=0;points=[[0,0,0],[0.25,0,0],[0.5,0,0],[0.75,0,0],[1,0,0],[0,1,0],[0.25,1,0],[0.5,1,0],[0.75,1,0],[1,1,0],[0,0.25,0],[0,0.5,0],[0,0.75,0],[1,0.25,0],[1,0.5,0],[1,0.75,0]];outlineConnect=0;fontColor=#232F3E;gradientColor=#945DF2;gradientDirection=north;fillColor=#5A30B5;strokeColor=#ffffff;dashed=0;verticalLabelPosition=bottom;verticalAlign=top;align=center;html=1;fontSize=12;fontStyle=0;aspect=fixed;shape=mxgraph.aws4.resourceIcon;resIcon=mxgraph.aws4.athena;" vertex="1" parent="UEzPUAAOIrF-is8g5C7q-205">
          <mxGeometry x="200.5" y="41" width="78" height="78" as="geometry" />
        </mxCell>
        <mxCell id="21uGkcQerDSEU2l0SpL8-2" value="Local" style="text;spacing=5;spacingTop=-20;overflow=hidden;rounded=0;strokeColor=default;fontSize=13;whiteSpace=wrap;fontColor=default;verticalAlign=bottom;" vertex="1" parent="1">
          <mxGeometry x="279.5" y="-50" width="240" height="130" as="geometry" />
        </mxCell>
        <mxCell id="21uGkcQerDSEU2l0SpL8-3" value="Superset cluster" style="sketch=0;aspect=fixed;html=1;points=[];align=center;image;fontSize=12;image=img/lib/mscae/Kubernetes.svg;" vertex="1" parent="1">
          <mxGeometry x="374.5" y="-20" width="50" height="48" as="geometry" />
        </mxCell>
        <mxCell id="21uGkcQerDSEU2l0SpL8-12" value="Read data" style="edgeStyle=orthogonalEdgeStyle;rounded=0;orthogonalLoop=1;jettySize=auto;html=1;startArrow=none;startFill=0;endArrow=open;endFill=0;strokeColor=#808080;strokeWidth=2;exitX=0.5;exitY=1;exitDx=0;exitDy=0;exitPerimeter=0;" edge="1" parent="1" source="21uGkcQerDSEU2l0SpL8-4" target="21uGkcQerDSEU2l0SpL8-6">
          <mxGeometry relative="1" as="geometry">
            <mxPoint x="531" y="90" as="sourcePoint" />
            <mxPoint x="531" y="171" as="targetPoint" />
          </mxGeometry>
        </mxCell>
        <mxCell id="21uGkcQerDSEU2l0SpL8-21" style="edgeStyle=orthogonalEdgeStyle;rounded=0;orthogonalLoop=1;jettySize=auto;html=1;startArrow=none;startFill=0;endArrow=open;endFill=0;strokeColor=#808080;strokeWidth=2;exitX=0.013;exitY=0.465;exitDx=0;exitDy=0;exitPerimeter=0;" edge="1" parent="1" source="21uGkcQerDSEU2l0SpL8-15">
          <mxGeometry relative="1" as="geometry">
            <mxPoint x="859" y="472" as="sourcePoint" />
            <mxPoint x="790" y="470" as="targetPoint" />
          </mxGeometry>
        </mxCell>
        <mxCell id="21uGkcQerDSEU2l0SpL8-23" value="Generate data" style="edgeLabel;html=1;align=center;verticalAlign=middle;resizable=0;points=[];" vertex="1" connectable="0" parent="21uGkcQerDSEU2l0SpL8-21">
          <mxGeometry x="-0.1543" y="-2" relative="1" as="geometry">
            <mxPoint x="-1" as="offset" />
          </mxGeometry>
        </mxCell>
      </root>
    </mxGraphModel>
  </diagram>
</mxfile>
